<?xml version="1.0" standalone="no"?>
<!DOCTYPE svg PUBLIC "-//W3C//DTD SVG 20010904//EN"
 "http://www.w3.org/TR/2001/REC-SVG-20010904/DTD/svg10.dtd">
<svg version="1.0" xmlns="http://www.w3.org/2000/svg"
 width="1600.000000pt" height="900.000000pt" viewBox="0 0 1600.000000 900.000000"
 preserveAspectRatio="xMidYMid meet">

<g transform="translate(0.000000,900.000000) scale(0.100000,-0.100000)"
fill="#000000" stroke="none">
<path d="M6400 6391 c0 -5 7 -12 16 -15 14 -5 15 -4 4 9 -14 17 -20 19 -20 6z"/>
<path d="M6351 6374 c0 -11 3 -14 6 -6 3 7 2 16 -1 19 -3 4 -6 -2 -5 -13z"/>
<path d="M6476 6326 c3 -9 11 -16 16 -16 13 0 5 23 -10 28 -7 2 -10 -2 -6 -12z"/>
<path d="M6510 6320 c0 -5 7 -7 15 -4 8 4 15 8 15 10 0 2 -7 4 -15 4 -8 0 -15
-4 -15 -10z"/>
<path d="M6600 6294 c0 -9 5 -14 12 -12 18 6 21 28 4 28 -9 0 -16 -7 -16 -16z"/>
<path d="M6640 6290 c0 -6 7 -10 15 -10 8 0 15 2 15 4 0 2 -7 6 -15 10 -8 3
-15 1 -15 -4z"/>
<path d="M6725 6261 c3 -5 0 -11 -7 -13 -8 -3 -9 -6 -1 -11 6 -4 16 -1 22 7 9
10 8 15 -4 20 -9 3 -14 2 -10 -3z"/>
<path d="M6500 6230 c0 -5 5 -10 11 -10 5 0 7 5 4 10 -3 6 -8 10 -11 10 -2 0
-4 -4 -4 -10z"/>
<path d="M6387 6187 c-5 -23 -4 -44 3 -55 9 -14 10 -13 6 10 -5 19 -1 30 11
37 10 6 13 11 6 11 -6 0 -13 8 -15 18 -2 9 -7 1 -11 -21z"/>
<path d="M6588 6183 c7 -3 16 -2 19 1 4 3 -2 6 -13 5 -11 0 -14 -3 -6 -6z"/>
<path d="M6928 6173 c7 -3 16 -2 19 1 4 3 -2 6 -13 5 -11 0 -14 -3 -6 -6z"/>
<path d="M7015 6135 c-22 -10 -25 -13 -10 -13 11 0 31 3 45 7 19 5 21 8 10 13
-9 3 -29 0 -45 -7z"/>
<path d="M7242 6058 c2 -6 10 -13 16 -14 7 -1 8 0 2 3 -5 2 -8 9 -4 14 3 5 0
9 -6 9 -7 0 -10 -5 -8 -12z"/>
<path d="M7306 6028 c3 -5 10 -6 15 -3 13 9 11 12 -6 12 -8 0 -12 -4 -9 -9z"/>
<path d="M7010 6020 c-8 -5 -10 -10 -5 -10 6 0 17 5 25 10 8 5 11 10 5 10 -5
0 -17 -5 -25 -10z"/>
<path d="M7078 5993 c7 -3 16 -2 19 1 4 3 -2 6 -13 5 -11 0 -14 -3 -6 -6z"/>
<path d="M7442 5978 c2 -6 10 -13 16 -14 7 -1 8 0 2 3 -5 2 -8 9 -4 14 3 5 0
9 -6 9 -7 0 -10 -5 -8 -12z"/>
<path d="M6421 5964 c0 -11 3 -14 6 -6 3 7 2 16 -1 19 -3 4 -6 -2 -5 -13z"/>
<path d="M6522 5960 c0 -14 2 -19 5 -12 2 6 2 18 0 25 -3 6 -5 1 -5 -13z"/>
<path d="M7484 5957 c1 -12 6 -21 9 -19 4 1 16 2 28 2 11 0 17 5 14 10 -4 6
-11 8 -16 5 -5 -4 -9 -2 -9 3 0 6 -7 12 -15 16 -11 4 -14 -1 -11 -17z"/>
<path d="M7195 5950 c-3 -6 1 -7 9 -4 18 7 21 14 7 14 -6 0 -13 -4 -16 -10z"/>
<path d="M7225 5940 c-3 -6 1 -7 9 -4 18 7 21 14 7 14 -6 0 -13 -4 -16 -10z"/>
<path d="M7630 5906 c0 -2 9 -6 20 -9 11 -3 18 -1 14 4 -5 9 -34 13 -34 5z"/>
<path d="M7560 5875 c-10 -13 -9 -15 9 -15 11 0 21 4 21 9 0 18 -18 21 -30 6z"/>
<path d="M7715 5870 c-9 -15 -7 -17 35 -24 19 -3 28 -3 20 0 -8 4 -22 13 -32
21 -11 10 -18 11 -23 3z"/>
<path d="M7840 5820 c0 -16 53 -66 57 -54 2 6 15 9 28 6 15 -2 25 0 25 7 0 12
-8 14 -55 12 -16 0 -24 2 -17 5 6 3 12 11 12 17 0 5 -3 7 -6 4 -4 -3 -15 -2
-25 4 -13 7 -19 6 -19 -1z"/>
<path d="M7706 5752 c-3 -4 4 -9 15 -9 23 -2 25 3 4 10 -8 4 -16 3 -19 -1z"/>
<path d="M7926 5732 c-3 -5 3 -21 14 -33 l19 -24 -4 24 c-5 30 -20 47 -29 33z"/>
<path d="M8040 5731 c-18 -5 -21 -9 -11 -15 8 -5 19 -2 29 8 9 9 14 16 12 15
-3 -1 -16 -4 -30 -8z"/>
<path d="M6464 5696 c0 -19 4 -32 8 -30 4 3 8 18 8 35 0 16 -4 29 -8 29 -4 0
-8 -15 -8 -34z"/>
<path d="M6560 5685 c0 -15 4 -24 10 -20 6 3 10 12 10 20 0 8 -4 17 -10 20 -6
4 -10 -5 -10 -20z"/>
<path d="M6468 5612 c3 -15 9 -30 14 -33 5 -3 10 -33 10 -65 1 -32 3 -53 5
-46 9 24 23 11 18 -15 -6 -27 -6 -27 9 -8 8 11 19 25 24 30 19 23 22 35 16 59
-3 15 -11 23 -17 19 -5 -3 -7 -1 -4 5 11 17 -4 42 -24 42 -10 0 -19 6 -19 13
0 8 -4 7 -10 -3 -8 -13 -10 -13 -10 2 0 9 -4 19 -9 22 -4 3 -6 -7 -3 -22z"/>
<path d="M6557 5610 c-3 -11 -1 -20 4 -20 5 0 9 9 9 20 0 11 -2 20 -4 20 -2 0
-6 -9 -9 -20z"/>
<path d="M8444 5569 c-3 -5 6 -9 20 -9 14 0 27 4 30 9 3 5 -6 9 -19 9 -14 0
-28 -4 -31 -9z"/>
<path d="M8220 5545 c0 -2 10 -10 23 -16 20 -11 21 -11 8 4 -13 16 -31 23 -31
12z"/>
<path d="M8560 5541 c0 -10 19 -25 25 -20 1 2 -3 10 -11 17 -8 7 -14 8 -14 3z"/>
<path d="M8640 5512 c0 -12 19 -26 26 -19 2 2 -2 10 -11 17 -9 8 -15 8 -15 2z"/>
<path d="M8328 5493 c7 -3 16 -2 19 1 4 3 -2 6 -13 5 -11 0 -14 -3 -6 -6z"/>
<path d="M8690 5471 c0 -6 5 -11 11 -11 13 0 40 -26 33 -33 -3 -2 7 -4 20 -4
20 0 25 4 24 22 -2 18 -9 22 -36 23 -18 1 -37 4 -42 7 -6 4 -10 1 -10 -4z"/>
<path d="M8836 5433 c-13 -13 -5 -21 23 -25 17 -2 28 -1 25 4 -8 13 -41 28
-48 21z"/>
<path d="M6551 5406 c-16 -28 -8 -46 20 -46 19 0 25 23 13 54 -9 22 -19 20
-33 -8z"/>
<path d="M8540 5416 c0 -2 11 -6 25 -8 13 -3 22 -1 19 3 -5 9 -44 13 -44 5z"/>
<path d="M8960 5381 c0 -5 5 -13 10 -16 6 -3 10 -2 10 4 0 5 -4 13 -10 16 -5
3 -10 2 -10 -4z"/>
<path d="M8752 5362 c-8 -6 -2 -9 18 -9 16 0 30 4 30 9 0 10 -31 10 -48 0z"/>
<path d="M9035 5350 c-9 -15 -1 -23 21 -18 15 3 16 4 1 16 -11 9 -17 10 -22 2z"/>
<path d="M10220 5339 c0 -5 5 -7 10 -4 6 3 10 8 10 11 0 2 -4 4 -10 4 -5 0
-10 -5 -10 -11z"/>
<path d="M8748 5333 c7 -3 16 -2 19 1 4 3 -2 6 -13 5 -11 0 -14 -3 -6 -6z"/>
<path d="M9080 5326 c0 -2 11 -11 24 -20 18 -11 31 -13 48 -7 22 9 22 10 -5
10 -16 1 -26 5 -23 9 2 4 -6 9 -20 10 -13 1 -24 0 -24 -2z"/>
<path d="M8850 5316 c0 -9 30 -14 35 -6 4 6 -3 10 -14 10 -12 0 -21 -2 -21 -4z"/>
<path d="M8935 5260 c3 -5 8 -10 11 -10 2 0 4 5 4 10 0 6 -5 10 -11 10 -5 0
-7 -4 -4 -10z"/>
<path d="M9260 5256 c0 -9 5 -16 10 -16 6 0 10 4 10 9 0 6 -4 13 -10 16 -5 3
-10 -1 -10 -9z"/>
<path d="M9297 5248 c-3 -10 0 -19 9 -22 21 -8 21 -8 21 9 0 8 -4 12 -8 9 -4
-2 -9 1 -11 8 -3 8 -7 6 -11 -4z"/>
<path d="M9372 5213 c-10 -4 -9 -9 4 -24 9 -10 22 -19 27 -19 6 0 3 8 -6 18
-10 10 -14 22 -10 25 7 8 4 8 -15 0z"/>
<path d="M9510 5126 c0 -21 15 -27 41 -18 l23 9 -21 12 c-29 15 -43 14 -43 -3z"/>
<path d="M5083 5105 c-112 -31 -185 -84 -230 -168 -14 -25 -18 -55 -18 -137 0
-96 2 -109 27 -151 38 -65 79 -98 204 -162 109 -55 176 -101 201 -137 35 -50
32 -172 -5 -213 -54 -60 -164 -79 -302 -52 -78 15 -93 16 -101 4 -14 -21 -29
-83 -32 -126 -2 -35 0 -38 38 -51 65 -21 194 -34 280 -28 230 18 361 122 380
303 19 172 -55 278 -269 389 -115 60 -172 116 -181 177 -10 63 1 102 36 131
56 48 149 58 252 29 56 -15 61 -15 72 0 16 22 39 132 32 150 -17 44 -277 73
-384 42z"/>
<path d="M6848 5112 l-88 -3 0 -604 0 -605 25 -6 c33 -8 171 -1 182 9 9 10 13
1181 4 1194 -10 15 -32 18 -123 15z"/>
<path d="M5709 5106 c-2 -2 -4 -273 -3 -601 1 -502 3 -598 15 -606 23 -14 175
-11 188 4 7 9 12 98 13 258 l3 244 30 3 c26 2 35 -4 66 -45 20 -26 98 -131
174 -233 75 -102 147 -195 158 -207 19 -21 29 -23 134 -23 97 0 113 2 113 16
0 9 -74 116 -164 238 -90 121 -182 248 -205 280 l-41 59 48 32 c118 80 206
183 275 320 40 81 77 194 77 236 l0 30 -102 -3 -101 -3 -22 -81 c-49 -186
-159 -329 -307 -399 -41 -20 -88 -37 -104 -38 l-29 -2 -5 260 -5 260 -101 3
c-55 1 -102 1 -105 -2z"/>
<path d="M7197 5104 c-4 -4 -7 -276 -7 -605 l0 -597 23 -6 c12 -3 173 -6 358
-6 264 0 339 3 353 13 17 12 18 22 10 103 l-9 89 -257 3 -258 2 -2 503 -3 502
-101 3 c-55 1 -103 0 -107 -4z"/>
<path d="M8118 5098 c-2 -7 -3 -278 -2 -602 2 -482 4 -590 15 -597 16 -10 688
-12 713 -3 13 5 16 23 16 93 0 47 -4 92 -8 98 -6 9 -74 13 -262 15 l-255 3 -5
500 -5 500 -101 3 c-76 2 -103 -1 -106 -10z"/>
<path d="M9027 5104 c-3 -4 -4 -198 0 -433 5 -383 7 -432 25 -484 47 -145 160
-245 323 -287 195 -50 391 2 514 136 105 115 103 107 114 610 6 238 7 439 4
448 -5 13 -24 16 -106 16 -94 0 -99 -1 -105 -22 -3 -13 -6 -201 -6 -418 0
-360 -2 -399 -19 -435 -70 -154 -315 -195 -446 -74 -82 75 -79 61 -85 529 l-5
415 -101 3 c-55 1 -103 0 -107 -4z"/>
<path d="M10220 4506 c0 -541 2 -604 16 -610 9 -3 51 -6 94 -6 114 0 110 -8
110 221 l0 189 143 0 c78 1 177 7 220 15 245 43 383 211 363 443 -11 133 -80
228 -211 293 -103 50 -171 59 -467 59 l-268 0 0 -604z m600 372 c172 -78 178
-253 13 -335 -55 -27 -65 -28 -225 -32 l-168 -3 0 202 0 202 163 -4 c146 -4
167 -7 217 -30z"/>
<path d="M9620 5090 c0 -5 4 -10 9 -10 5 0 12 -12 14 -27 3 -23 4 -21 6 10 1
27 -3 37 -14 37 -8 0 -15 -4 -15 -10z"/>
<path d="M9450 5080 c-8 -5 -12 -11 -9 -14 2 -3 11 -1 19 4 8 5 12 11 9 14 -2
3 -11 1 -19 -4z"/>
<path d="M9490 5072 c0 -5 7 -13 16 -16 10 -4 14 -1 12 6 -5 15 -28 23 -28 10z"/>
<path d="M9611 4414 c0 -11 3 -14 6 -6 3 7 2 16 -1 19 -3 4 -6 -2 -5 -13z"/>
<path d="M9648 4360 c-1 -28 0 -50 5 -50 4 0 7 23 7 50 0 65 -7 65 -12 0z"/>
<path d="M9525 4370 c3 -5 -1 -10 -9 -10 -10 0 -16 -9 -16 -21 0 -15 4 -19 16
-15 12 4 15 2 10 -9 -3 -8 -1 -15 5 -15 6 0 9 8 7 18 -1 9 1 23 5 30 9 14 1
32 -14 32 -6 0 -7 -4 -4 -10z"/>
<path d="M9420 4280 c0 -5 5 -10 11 -10 5 0 7 5 4 10 -3 6 -8 10 -11 10 -2 0
-4 -4 -4 -10z"/>
<path d="M9557 4283 c-3 -4 0 -15 6 -24 11 -14 14 -14 32 4 15 15 16 19 4 14
-9 -3 -21 -1 -27 5 -5 5 -12 6 -15 1z"/>
<path d="M8980 3862 c0 -4 5 -13 12 -20 8 -8 9 -12 1 -12 -16 0 -4 -38 14 -45
13 -4 14 -3 3 10 -7 8 -10 22 -6 30 6 18 -2 45 -15 45 -5 0 -9 -4 -9 -8z"/>
<path d="M9055 3850 c-3 -5 -4 -14 -1 -19 4 -5 1 -12 -4 -14 -6 -3 -5 -4 1 -3
7 1 14 12 16 24 3 23 -2 28 -12 12z"/>
<path d="M8893 3763 c-18 -7 -16 -30 3 -37 8 -3 12 -10 9 -16 -13 -20 14 -9
29 12 18 26 20 38 6 38 -5 0 -9 -3 -9 -7 3 -21 -2 -34 -11 -28 -6 4 -8 15 -5
26 6 19 1 22 -22 12z"/>
<path d="M6796 3741 c-18 -7 -18 -8 -2 -14 32 -13 76 -8 76 8 0 16 -40 19 -74
6z m41 -7 c-3 -3 -12 -4 -19 -1 -8 3 -5 6 6 6 11 1 17 -2 13 -5z"/>
<path d="M6776 3684 c-3 -8 -2 -13 3 -9 5 3 12 -1 14 -7 4 -8 6 -7 6 4 1 23
-15 32 -23 12z"/>
<path d="M8856 3663 c-6 -14 -5 -15 5 -6 7 7 10 15 7 18 -3 3 -9 -2 -12 -12z"/>
<path d="M8693 3659 c-6 -6 -26 -14 -45 -18 -19 -4 -33 -13 -33 -21 0 -8 -8
-18 -17 -22 -29 -12 -21 -25 12 -20 27 4 30 2 31 -24 1 -16 1 -32 0 -36 0 -5
4 -8 9 -8 6 0 10 5 10 11 0 6 9 9 19 6 13 -3 18 -1 14 9 -2 7 -11 10 -19 7 -9
-3 -14 1 -14 12 0 9 5 13 10 10 6 -3 10 3 10 14 0 12 7 21 15 21 8 0 15 -4 15
-10 0 -5 7 -10 15 -10 8 0 15 7 15 15 0 10 -10 15 -32 15 -25 0 -29 3 -18 10
8 5 11 10 7 10 -4 0 -3 9 3 20 12 22 9 25 -7 9z"/>
<path d="M6881 3630 c1 -14 5 -38 9 -55 l7 -30 7 25 c4 16 1 36 -8 55 -15 29
-16 29 -15 5z"/>
<path d="M6846 3535 c-3 -8 -1 -15 4 -15 6 0 10 7 10 15 0 8 -2 15 -4 15 -2 0
-6 -7 -10 -15z"/>
<path d="M8422 3474 c-12 -8 -22 -20 -22 -26 0 -7 6 -5 13 4 6 8 21 20 32 26
11 6 15 12 10 12 -6 0 -21 -7 -33 -16z"/>
<path d="M6810 3477 c0 -2 4 -17 9 -33 5 -16 12 -41 15 -55 9 -41 32 -43 56
-4 23 38 20 55 -11 55 -10 0 -19 6 -19 13 0 7 -7 4 -15 -7 -15 -19 -15 -19
-15 1 0 12 -4 25 -10 28 -5 3 -10 4 -10 2z"/>
<path d="M8580 3470 c-8 -5 -10 -10 -5 -10 6 0 17 5 25 10 8 5 11 10 5 10 -5
0 -17 -5 -25 -10z"/>
<path d="M8377 3416 c-4 -10 -3 -15 3 -11 6 3 10 -3 10 -15 0 -16 5 -21 22
-18 13 2 24 11 26 21 3 14 -1 18 -15 15 -10 -2 -23 3 -29 11 -9 12 -12 11 -17
-3z"/>
<path d="M6920 3375 c0 -8 4 -15 10 -15 5 0 7 7 4 15 -4 8 -8 15 -10 15 -2 0
-4 -7 -4 -15z"/>
<path d="M8305 3370 c-3 -5 -1 -10 4 -10 6 0 11 5 11 10 0 6 -2 10 -4 10 -3 0
-8 -4 -11 -10z"/>
<path d="M6940 3334 c0 -14 -2 -16 -9 -5 -13 21 -20 -1 -9 -29 l11 -25 9 34
c5 18 7 36 4 39 -3 3 -6 -3 -6 -14z"/>
<path d="M8455 3339 c-11 -16 -1 -19 13 -3 7 8 8 14 3 14 -5 0 -13 -5 -16 -11z"/>
<path d="M8240 3314 c0 -8 -4 -13 -9 -10 -5 4 -7 -3 -4 -13 5 -20 33 -38 33
-21 0 6 9 10 20 10 28 0 25 25 -5 38 -33 15 -35 15 -35 -4z"/>
<path d="M8350 3290 c0 -5 10 -15 23 -21 22 -12 22 -12 3 10 -21 23 -26 26
-26 11z"/>
<path d="M8190 3265 c0 -8 4 -15 10 -15 5 0 7 7 4 15 -4 8 -8 15 -10 15 -2 0
-4 -7 -4 -15z"/>
<path d="M8147 3243 c-13 -16 -13 -20 0 -32 13 -11 14 -11 12 5 -2 11 0 25 4
32 12 18 3 15 -16 -5z"/>
<path d="M8316 3225 c4 -8 8 -15 10 -15 2 0 4 7 4 15 0 8 -4 15 -10 15 -5 0
-7 -7 -4 -15z"/>
<path d="M8242 3178 c2 -16 6 -24 11 -19 5 5 5 17 -2 28 -9 16 -10 15 -9 -9z"/>
<path d="M6865 3171 c-3 -5 -1 -12 5 -16 5 -3 10 1 10 9 0 18 -6 21 -15 7z"/>
<path d="M6961 3164 c0 -11 3 -14 6 -6 3 7 2 16 -1 19 -3 4 -6 -2 -5 -13z"/>
<path d="M8202 3151 c4 -13 18 -16 19 -4 0 4 -5 9 -11 12 -7 2 -11 -2 -8 -8z"/>
<path d="M7995 3120 c-3 -6 1 -7 9 -4 18 7 21 14 7 14 -6 0 -13 -4 -16 -10z"/>
<path d="M7499 3103 c-13 -16 -12 -17 4 -4 16 13 21 21 13 21 -2 0 -10 -8 -17
-17z"/>
<path d="M8163 3101 c0 -11 5 -18 9 -15 4 3 5 11 1 19 -7 21 -12 19 -10 -4z"/>
<path d="M7970 3090 c0 -5 5 -10 11 -10 5 0 7 5 4 10 -3 6 -8 10 -11 10 -2 0
-4 -4 -4 -10z"/>
<path d="M7470 3070 c-9 -6 -10 -10 -3 -10 6 0 15 5 18 10 8 12 4 12 -15 0z"/>
<path d="M8126 3072 c-3 -5 1 -9 9 -9 8 0 12 4 9 9 -3 4 -7 8 -9 8 -2 0 -6 -4
-9 -8z"/>
<path d="M8083 3023 c0 -9 4 -10 14 -2 7 6 13 12 13 14 0 1 -6 2 -13 2 -8 0
-14 -6 -14 -14z"/>
<path d="M7920 3010 c-13 -9 -13 -11 0 -20 24 -16 40 -12 40 10 0 22 -16 26
-40 10z"/>
<path d="M7998 2998 c-7 -16 7 -46 17 -37 3 4 2 16 -3 29 -7 18 -10 20 -14 8z"/>
<path d="M8025 2990 c-3 -5 -1 -10 4 -10 6 0 11 5 11 10 0 6 -2 10 -4 10 -3 0
-8 -4 -11 -10z"/>
<path d="M6911 2954 c0 -11 3 -14 6 -6 3 7 2 16 -1 19 -3 4 -6 -2 -5 -13z"/>
<path d="M7824 2963 c4 -7 3 -13 -3 -13 -6 0 -15 -8 -20 -19 -9 -15 -7 -18 12
-17 25 1 35 32 16 50 -9 8 -10 8 -5 -1z"/>
<path d="M6890 2928 c0 -7 5 -20 10 -28 8 -12 10 -11 10 7 0 12 -4 25 -10 28
-5 3 -10 0 -10 -7z"/>
<path d="M7926 2911 c-3 -4 6 -6 19 -3 14 2 25 6 25 8 0 8 -39 4 -44 -5z"/>
<path d="M7714 2883 c-10 -7 -13 -13 -7 -13 7 0 14 4 18 10 3 5 12 7 20 3 8
-3 15 -1 15 4 0 14 -24 12 -46 -4z"/>
<path d="M7882 2888 c6 -18 28 -21 28 -4 0 9 -7 16 -16 16 -9 0 -14 -5 -12
-12z"/>
<path d="M7000 2857 c0 -23 4 -36 10 -32 13 8 13 35 0 55 -7 11 -10 5 -10 -23z"/>
<path d="M7835 2876 c-3 -9 -7 -22 -9 -30 -3 -8 3 -16 13 -19 13 -3 17 3 19
24 2 31 -15 49 -23 25z"/>
<path d="M6910 2858 c0 -12 3 -17 8 -12 4 5 11 12 15 15 5 3 2 9 -7 12 -12 5
-16 0 -16 -15z"/>
<path d="M6946 2841 c-9 -14 4 -41 20 -41 8 0 14 6 14 14 0 18 -26 40 -34 27z"/>
<path d="M7665 2840 c-8 -13 -1 -24 14 -19 6 3 7 10 2 18 -6 10 -10 10 -16 1z"/>
<path d="M7788 2793 c-10 -2 -18 -11 -18 -19 0 -11 4 -10 20 3 17 15 26 26 18
22 -2 -1 -11 -3 -20 -6z"/>
<path d="M7561 2748 c-32 -29 -33 -32 -16 -44 22 -16 31 -11 49 25 23 44 6 53
-33 19z"/>
<path d="M6931 2698 c-1 -20 3 -26 14 -22 8 4 15 13 15 21 0 8 -4 12 -9 9 -5
-4 -12 0 -14 6 -3 7 -6 1 -6 -14z"/>
<path d="M7685 2709 c-11 -17 1 -21 15 -4 8 9 8 15 2 15 -6 0 -14 -5 -17 -11z"/>
<path d="M7645 2670 c-3 -5 -2 -10 4 -10 5 0 13 5 16 10 3 6 2 10 -4 10 -5 0
-13 -4 -16 -10z"/>
<path d="M7436 2651 c-3 -5 1 -11 9 -15 9 -3 15 0 15 9 0 16 -16 20 -24 6z"/>
<path d="M7574 2625 c-15 -11 -16 -14 -4 -15 21 0 44 16 33 23 -6 4 -19 0 -29
-8z"/>
<path d="M7040 2604 c0 -8 5 -12 10 -9 6 4 8 11 5 16 -9 14 -15 11 -15 -7z"/>
<path d="M7544 2586 c-10 -8 -17 -16 -14 -19 3 -2 14 4 24 14 23 22 18 25 -10
5z"/>
<path d="M6950 2577 c0 -18 16 -25 47 -19 24 5 32 22 11 22 -7 0 -23 3 -35 6
-17 5 -23 2 -23 -9z"/>
<path d="M7061 2574 c0 -11 3 -14 6 -6 3 7 2 16 -1 19 -3 4 -6 -2 -5 -13z"/>
<path d="M7486 2545 c4 -8 7 -15 9 -15 2 0 5 7 9 15 3 9 0 15 -9 15 -9 0 -12
-6 -9 -15z"/>
<path d="M7314 2525 c-4 -8 -12 -15 -20 -15 -8 0 -14 -8 -14 -18 0 -15 6 -18
31 -14 22 3 34 0 41 -12 11 -20 24 -21 32 0 4 11 -4 27 -24 45 -34 33 -39 35
-46 14z"/>
<path d="M7222 2477 c-25 -27 -30 -46 -6 -27 15 13 38 50 31 50 -2 0 -13 -10
-25 -23z"/>
<path d="M6970 2474 c0 -8 5 -12 10 -9 6 4 8 11 5 16 -9 14 -15 11 -15 -7z"/>
<path d="M7030 2468 c0 -7 8 -22 16 -33 15 -19 15 -19 12 9 -3 29 -28 51 -28
24z"/>
<path d="M6970 2430 c0 -5 5 -10 10 -10 6 0 10 5 10 10 0 6 -4 10 -10 10 -5 0
-10 -4 -10 -10z"/>
<path d="M7347 2433 c-4 -3 -7 -11 -7 -17 0 -6 5 -5 12 2 6 6 9 14 7 17 -3 3
-9 2 -12 -2z"/>
<path d="M6980 2395 c0 -8 5 -15 10 -15 6 0 10 7 10 15 0 8 -4 15 -10 15 -5 0
-10 -7 -10 -15z"/>
<path d="M7120 2380 c0 -5 7 -10 15 -10 8 0 15 5 15 10 0 6 -7 10 -15 10 -8 0
-15 -4 -15 -10z"/>
<path d="M7010 2355 c0 -8 2 -15 4 -15 2 0 6 7 10 15 3 8 1 15 -4 15 -6 0 -10
-7 -10 -15z"/>
<path d="M7135 2266 c11 -8 24 -12 29 -8 5 3 1 9 -10 13 -31 12 -39 10 -19 -5z"/>
<path d="M7020 2226 c0 -8 -3 -23 -6 -33 -6 -16 -5 -16 9 2 19 23 22 45 7 45
-5 0 -10 -6 -10 -14z"/>
<path d="M7043 2181 c0 -11 5 -18 9 -15 4 3 5 11 1 19 -7 21 -12 19 -10 -4z"/>
</g>
</svg>
